PathFileType	4	(X/Y/Z)	./resultDataOpenSim/trcMotMarkerGrf/sub06/qtm-14-04.trc
DataRate	CameraRate	NumFrames	NumMarkers	Units	OrigDataRate	OrigDataStartFrame	OrigNumFrames
250.000000	250.000000	10	24	m	250.000000	1	542
Frame#	Time	L.Toe.Tip			R.Toe.Tip			L.Ankle.Lat			R.Ankle.Lat			L.Ankle.Med			R.Ankle.Med			L.Heel			R.Heel			L.Knee.Lat			R.Knee.Lat			L.Knee.Med			R.Knee.Med			L.Thigh.Upper			R.Thigh.Upper			L.ASIS			R.ASIS			V.Sacral			L.Acromium			R.Acromium			C7			L.Elbow			R.Elbow			L.Wrist.Lat			R.Wrist.Lat
		X1	Y1	Z1	X2	Y2	Z2	X3	Y3	Z3	X4	Y4	Z4	X5	Y5	Z5	X6	Y6	Z6	X7	Y7	Z7	X8	Y8	Z8	X9	Y9	Z9	X10	Y10	Z10	X11	Y11	Z11	X12	Y12	Z12	X13	Y13	Z13	X14	Y14	Z14	X15	Y15	Z15	X16	Y16	Z16	X17	Y17	Z17	X18	Y18	Z18	X19	Y19	Z19	X20	Y20	Z20	X21	Y21	Z21	X22	Y22	Z22	X23	Y23	Z23	X24	Y24	Z24

1	0	-1.6065929	0.033050581	-0.068043009	-1.0415354	0.09198491	0.12254975	-1.7274947	0.072110277	-0.086085634	-1.1738555	0.081076694	0.1351482	-1.7202145	0.085181771	-0.0012252596	-1.1589773	0.10906952	0.050818058	NaN	NaN	NaN	-1.2132453	0.04266157	0.062830313	-1.582276	0.41224691	-0.10617181	-1.2751163	0.45625458	0.14059656	-1.6050412	0.423569	0.015172816	-1.2879164	0.43522037	0.012326899	-1.4875892	0.78785128	-0.17528421	-1.4575176	0.78324997	0.17592061	-1.402938	0.82812954	-0.13483698	-1.3757199	0.83412942	0.11170285	-1.5701464	0.91337441	0.01088104	-1.3950711	1.315933	-0.18253178	-1.4246383	1.297194	0.18011282	-1.4851643	1.3512487	-0.0057365659	-1.3817193	0.99507285	-0.26285633	NaN	NaN	NaN	-1.1736267	0.86658292	-0.21131601	-1.4850468	0.7937679	0.2725946
2	0.004	-1.6064566	0.033040164	-0.06816648	-1.0277362	0.09611378	0.12222885	-1.7269807	0.072540811	-0.085962167	-1.159349	0.08236811	0.13512043	-1.7200919	0.085715759	-0.0011081094	-1.1459106	0.11034736	0.050439943	NaN	NaN	NaN	-1.1986482	0.042526913	0.062635261	-1.579244	0.41162908	-0.10616997	-1.2690997	0.45480708	0.14029874	-1.6013892	0.42282201	0.015272947	-1.2817193	0.43366754	0.011863137	-1.4829939	0.78681555	-0.17417607	-1.4517284	0.78126239	0.17594396	-1.3974413	0.82678164	-0.13505279	-1.3695029	0.83241686	0.11180974	-1.5630109	0.91201822	0.012424462	-1.3894268	1.3144431	-0.18213839	-1.4194325	1.2956364	0.18054347	-1.4800361	1.3498633	-0.0054689229	-1.3743008	0.99353335	-0.26200379	NaN	NaN	NaN	-1.1658552	0.86625656	-0.21017787	-1.4827623	0.79201492	0.27306886
3	0.008	-1.6063567	0.0330235	-0.068252369	-1.0143106	0.10029108	0.12190152	-1.7264916	0.073051365	-0.085826408	-1.1453711	0.08352922	0.13490376	-1.7198801	0.086242226	-0.0010039533	-1.1330214	0.1116671	0.049995586	NaN	NaN	NaN	-1.1842629	0.042453517	0.062328264	-1.5761537	0.41101881	-0.10618192	-1.2629999	0.45338226	0.14005919	-1.5976509	0.42212426	0.015367497	-1.2755182	0.43210172	0.01141132	-1.4782723	0.78570833	-0.17336127	-1.4455751	0.77932904	0.17601437	-1.3919906	0.825447	-0.13516236	-1.3632967	0.83071434	0.11186581	-1.555269	0.91062348	0.01433319	-1.3837737	1.3129533	-0.18175493	-1.4141975	1.2940843	0.18097914	-1.4747394	1.348481	-0.0051352137	-1.3669603	0.9920258	-0.26124416	NaN	NaN	NaN	-1.1581583	0.86591057	-0.20907199	-1.4804422	0.79026503	0.27353583
4	0.012	-1.6062943	0.033001289	-0.068302257	-1.0014593	0.10448982	0.12154191	-1.726044	0.073676164	-0.085692602	-1.1321036	0.084525637	0.13441334	-1.7197904	0.086730992	-0.00082238398	-1.1204477	0.11303797	0.049446942	NaN	NaN	NaN	-1.1702084	0.042483454	0.061830224	-1.5729664	0.41042223	-0.10621445	-1.2567982	0.45198142	0.13989546	-1.5937753	0.42147597	0.015444717	-1.2692844	0.43050236	0.010973587	-1.473386	0.78453018	-0.17283048	-1.4390505	0.77745226	0.17613534	-1.3865531	0.8241407	-0.13513875	-1.3570741	0.82902313	0.11185203	-1.5471022	0.90919845	0.0164839	-1.3780934	1.3114622	-0.18137513	-1.4089042	1.2925407	0.1814249	-1.4692495	1.3470968	-0.0047693511	-1.3597075	0.99055616	-0.26057266	NaN	NaN	NaN	-1.150549	0.86552228	-0.20799983	-1.4780276	0.78853583	0.27399705
5	0.016	-1.6062488	0.032978126	-0.068342775	-0.98919049	0.10861162	0.12108624	-1.7256433	0.074390856	-0.085586088	-1.1194753	0.085390092	0.13367183	-1.7204165	0.087104066	-0.00034897003	-1.1082961	0.11442806	0.048797427	NaN	NaN	NaN	-1.1565333	0.04263171	0.061131329	-1.5696741	0.40984428	-0.10625515	-1.2505319	0.45059749	0.13979385	-1.5898116	0.42086316	0.015494897	-1.2629996	0.42886143	0.010549119	-1.4683837	0.78333599	-0.17241308	-1.4323402	0.77560847	0.17628671	-1.3810953	0.82286216	-0.13505203	-1.3508112	0.82734776	0.11178823	-1.5392885	0.90779331	0.018394715	-1.3723793	1.3099719	-0.1809827	-1.403542	1.2910111	0.18188255	-1.4636506	1.3457126	-0.0044251555	-1.3525189	0.98911295	-0.25991231	NaN	NaN	NaN	-1.1430102	0.86507383	-0.20694704	-1.4754432	0.78686076	0.27446067
6	0.02	-1.6062068	0.032955614	-0.06839191	-0.97736781	0.11257153	0.12043137	-1.7253016	0.075151779	-0.085508657	-1.1073685	0.086155932	0.13275794	-1.7222036	0.08731146	0.00055240845	-1.0966076	0.11579008	0.048074589	NaN	NaN	NaN	-1.1432639	0.042882251	0.060274083	-1.5662831	0.40929196	-0.10628552	-1.2442173	0.44923073	0.13974064	-1.5858032	0.42029744	0.015511771	-1.2566573	0.42719774	0.010138931	-1.463321	0.78217449	-0.17201077	-1.4255925	0.77378378	0.17644635	-1.3756635	0.8215671	-0.13504784	-1.3445004	0.82569238	0.1116978	-1.5323568	0.90644864	0.019740644	-1.3666317	1.3084887	-0.18056682	-1.3981061	1.2895013	0.18234975	-1.4580049	1.3443454	-0.0040757677	-1.3453736	0.98768619	-0.25919759	NaN	NaN	NaN	-1.1355243	0.86455654	-0.20590505	-1.4726258	0.78526142	0.2749376
7	0.024	-1.6061682	0.032930889	-0.06844963	-0.96585763	0.1163016	0.11949554	-1.7250441	0.075945955	-0.085439544	-1.0957145	0.086836627	0.13176405	-1.7244888	0.087502866	0.0016143472	-1.0853778	0.11708062	0.047303456	NaN	NaN	NaN	-1.1304886	0.043193297	0.059316076	-1.5627991	0.40876915	-0.1063006	-1.2378329	0.44788517	0.1397245	-1.5816675	0.41978883	0.015495361	-1.2502487	0.42555157	0.0097419346	-1.4582237	0.78105958	-0.1716091	-1.4188903	0.77198689	0.17660209	-1.3703311	0.82020526	-0.13524963	-1.3381388	0.82405868	0.11158047	-1.5261974	0.90516672	0.020583475	-1.3608538	1.3070218	-0.18012565	-1.3925971	1.2880159	0.18282508	-1.4523239	1.3430141	-0.0036705908	-1.338269	0.98627592	-0.25841205	NaN	NaN	NaN	-1.1280898	0.86397261	-0.20487298	-1.4695596	0.78372886	0.27543269
8	0.028	-1.606136	0.032900958	-0.068509337	-0.9546839	0.11966498	0.11831818	-1.7248675	0.076795056	-0.085370842	-1.0844941	0.087432612	0.13076097	-1.7257523	0.087984932	0.002286302	-1.0745988	0.11825722	0.046494625	NaN	NaN	NaN	-1.118354	0.043515369	0.058314421	-1.5592105	0.40826578	-0.10630832	-1.2313383	0.4465637	0.13972613	-1.5773361	0.41931213	0.015471401	-1.2437578	0.42396529	0.0093539281	-1.4530951	0.77997765	-0.17121176	-1.4122129	0.77024516	0.17675962	-1.3650665	0.81880081	-0.13560628	-1.3317177	0.82245352	0.1114291	-1.5203895	0.903932	0.021170981	-1.3550481	1.3055794	-0.17966097	-1.387018	1.2865597	0.18331292	-1.4466032	1.3417219	-0.0032192226	-1.3312103	0.98488667	-0.25756847	NaN	NaN	NaN	-1.1207158	0.86333655	-0.20385038	-1.4662876	0.7822341	0.2759365
9	0.032	-1.6061093	0.032867372	-0.06856774	-0.94401639	0.12246687	0.11705191	-1.7246885	0.077716386	-0.08532375	-1.0737173	0.087935599	0.12978218	-1.7252237	0.088911629	0.0022949016	-1.0642781	0.1192718	0.04564707	NaN	NaN	NaN	-1.1069746	0.04380109	0.057321965	-1.5554838	0.40776475	-0.10632099	-1.2246799	0.44528192	0.13972723	-1.572909	0.41882342	0.01548744	-1.2371714	0.42247648	0.0089736541	-1.4479339	0.77890833	-0.17081911	-1.4055003	0.76858488	0.17691553	-1.359723	0.81744586	-0.13589986	-1.3252231	0.82089108	0.11125068	-1.5146184	0.90274128	0.021698286	-1.3492174	1.3041684	-0.17917857	-1.3813632	1.2851406	0.1838202	-1.4408379	1.3404619	-0.0027515594	-1.3241989	0.98352207	-0.25667755	NaN	NaN	NaN	-1.1134112	0.86266642	-0.20283587	-1.4628929	0.78075377	0.27643478
10	0.036	-1.6060808	0.032835443	-0.068626183	-0.93398204	0.12460415	0.11580241	-1.7243537	0.078707117	-0.085326313	-1.0634074	0.088327123	0.12882698	-1.7234509	0.090157305	0.0018235276	-1.0544407	0.12007587	0.044756982	NaN	NaN	NaN	-1.0963861	0.044003461	0.056389278	-1.5515826	0.4072578	-0.10634556	-1.2178049	0.44407413	0.13971679	-1.5684886	0.41830442	0.015559791	-1.2304899	0.42112628	0.0086068832	-1.4427376	0.77784104	-0.17042945	-1.3987675	0.76702141	0.17705163	-1.354184	0.81620357	-0.13597116	-1.3186473	0.81938729	0.11106126	-1.5087671	0.90160002	0.022260371	-1.3433633	1.3027954	-0.17868573	-1.3756241	1.2837662	0.18435283	-1.4350225	1.3392329	-0.002257922	-1.3172345	0.98218677	-0.25573789	NaN	NaN	NaN	-1.1061809	0.8619663	-0.20183015	-1.4594627	0.77928358	0.27692048
